<svg xmlns="http://www.w3.org/2000/svg" xmlns:xlink="http://www.w3.org/1999/xlink" width="500" zoomAndPan="magnify" viewBox="0 0 375 374.999991" height="500" preserveAspectRatio="xMidYMid meet" version="1.0"><defs><clipPath id="3697ceaeb7"><path d="M 151 268 L 224 268 L 224 327.75 L 151 327.75 Z M 151 268 " clip-rule="nonzero"/></clipPath><clipPath id="b638aeaf1e"><path d="M 42.253906 147 L 102 147 L 102 219 L 42.253906 219 Z M 42.253906 147 " clip-rule="nonzero"/></clipPath><clipPath id="0378ae5966"><path d="M 151 37.5 L 224 37.5 L 224 97 L 151 97 Z M 151 37.5 " clip-rule="nonzero"/></clipPath><clipPath id="d68d30657c"><path d="M 273 147 L 332.503906 147 L 332.503906 219 L 273 219 Z M 273 147 " clip-rule="nonzero"/></clipPath></defs><path fill="#02afaf" d="M 146.683594 84.238281 L 145.324219 87.613281 C 141.378906 97.386719 138.925781 107.734375 138.03125 118.371094 L 137.734375 121.941406 L 141.304688 122.230469 C 148.28125 122.789062 155.074219 123.933594 161.492188 125.617188 L 164.109375 126.304688 L 165.480469 123.964844 C 168.835938 118.21875 172.832031 112.613281 177.351562 107.296875 L 179.671875 104.570312 L 176.9375 102.261719 C 168.777344 95.363281 159.722656 89.78125 150.03125 85.667969 Z M 169.59375 105.476562 C 166.324219 109.542969 163.34375 113.761719 160.699219 118.054688 C 155.792969 116.886719 150.695312 116.011719 145.503906 115.449219 C 146.394531 108 148.113281 100.71875 150.625 93.746094 C 157.328125 96.898438 163.691406 100.835938 169.59375 105.476562 Z M 169.59375 105.476562 " fill-opacity="1" fill-rule="nonzero"/><g clip-path="url(#3697ceaeb7)"><path fill="#02afaf" d="M 187.496094 327.972656 L 189.449219 326.695312 C 195.519531 322.738281 201.238281 318.097656 206.441406 312.894531 C 211.847656 307.488281 216.734375 301.363281 220.964844 294.691406 L 223.191406 291.1875 L 219.386719 289.507812 C 208.617188 284.773438 198.671875 278.492188 189.832031 270.84375 L 187.496094 268.820312 L 185.160156 270.84375 C 176.296875 278.511719 166.359375 284.792969 155.609375 289.515625 L 151.808594 291.191406 L 154.027344 294.691406 C 158.257812 301.367188 163.140625 307.496094 168.539062 312.894531 C 173.722656 318.078125 179.445312 322.714844 185.550781 326.691406 Z M 162.320312 294.285156 C 171.328125 289.953125 179.78125 284.558594 187.492188 278.214844 C 195.191406 284.550781 203.644531 289.941406 212.671875 294.28125 C 209.28125 299.1875 205.492188 303.742188 201.386719 307.84375 C 197.09375 312.132812 192.425781 316.019531 187.496094 319.40625 C 182.527344 316 177.855469 312.117188 173.582031 307.84375 C 169.484375 303.746094 165.703125 299.195312 162.320312 294.285156 Z M 162.320312 294.285156 " fill-opacity="1" fill-rule="nonzero"/></g><path fill="#02afaf" d="M 228.28125 281.261719 L 229.640625 277.886719 C 233.589844 268.101562 236.042969 257.753906 236.933594 247.128906 L 237.230469 243.5625 L 233.660156 243.273438 C 230.042969 242.980469 227.101562 242.640625 224.238281 242.175781 C 222.632812 241.90625 221.089844 241.617188 219.582031 241.3125 C 218.054688 240.996094 216.65625 240.679688 215.296875 240.34375 L 210.867188 239.195312 L 209.5 241.535156 C 206.160156 247.257812 202.160156 252.859375 197.625 258.195312 L 195.308594 260.921875 L 198.042969 263.230469 C 206.179688 270.109375 215.226562 275.691406 224.929688 279.824219 Z M 205.390625 260.011719 C 208.660156 255.941406 211.644531 251.726562 214.28125 247.445312 C 215.511719 247.738281 216.789062 248.023438 218.226562 248.320312 C 219.746094 248.628906 221.367188 248.933594 223.265625 249.253906 C 225.207031 249.570312 227.210938 249.824219 229.460938 250.058594 C 228.574219 257.480469 226.855469 264.753906 224.34375 271.742188 C 217.625 268.574219 211.265625 264.636719 205.390625 260.011719 Z M 205.390625 260.011719 " fill-opacity="1" fill-rule="nonzero"/><g clip-path="url(#b638aeaf1e)"><path fill="#02afaf" d="M 79.105469 218.484375 L 80.761719 214.664062 C 83.53125 208.324219 86.730469 202.40625 90.25 197.09375 L 92.234375 194.191406 C 92.4375 193.898438 92.664062 193.601562 92.898438 193.289062 L 94.5 191.097656 C 95.117188 190.273438 95.707031 189.53125 96.308594 188.777344 C 96.777344 188.171875 97.371094 187.445312 98.339844 186.285156 L 101.40625 182.765625 L 99.375 180.410156 C 97.554688 178.3125 95.828125 176.167969 94.09375 173.84375 C 92.929688 172.316406 91.714844 170.597656 90.28125 168.449219 C 86.742188 163.105469 83.539062 157.183594 80.761719 150.84375 L 79.101562 147.03125 L 75.589844 149.25 C 68.878906 153.484375 62.742188 158.378906 57.332031 163.789062 C 52.140625 168.984375 47.492188 174.710938 43.53125 180.804688 L 42.253906 182.757812 L 43.53125 184.703125 C 47.511719 190.816406 52.152344 196.542969 57.335938 201.722656 C 62.742188 207.132812 68.886719 212.023438 75.582031 216.257812 Z M 94.203125 183.304688 Z M 50.816406 182.757812 C 54.21875 177.789062 58.109375 173.113281 62.382812 168.835938 C 66.476562 164.746094 71.042969 160.957031 75.980469 157.550781 C 78.488281 162.816406 81.292969 167.804688 84.339844 172.402344 C 85.886719 174.714844 87.1875 176.566406 88.546875 178.351562 C 89.652344 179.820312 90.808594 181.289062 92.003906 182.746094 C 91.492188 183.355469 91.054688 183.902344 90.714844 184.351562 C 90 185.230469 89.253906 186.191406 88.429688 187.292969 L 87.191406 189 C 86.875 189.421875 86.554688 189.851562 86.191406 190.382812 L 84.320312 193.113281 C 81.273438 197.714844 78.472656 202.695312 75.976562 207.957031 C 71.035156 204.550781 66.472656 200.757812 62.386719 196.667969 C 58.113281 192.402344 54.226562 187.726562 50.816406 182.757812 Z M 50.816406 182.757812 " fill-opacity="1" fill-rule="nonzero"/></g><path fill="#02afaf" d="M 146.683594 281.265625 L 150.039062 279.839844 C 159.722656 275.714844 168.773438 270.128906 176.933594 263.234375 L 179.671875 260.925781 L 177.351562 258.199219 C 172.824219 252.867188 168.828125 247.261719 165.480469 241.527344 L 164.113281 239.1875 L 161.492188 239.878906 C 155.0625 241.5625 148.269531 242.703125 141.300781 243.265625 L 137.734375 243.558594 L 138.03125 247.125 C 138.929688 257.777344 141.382812 268.132812 145.324219 277.902344 Z M 160.699219 247.433594 C 163.335938 251.722656 166.320312 255.941406 169.59375 260.011719 C 163.691406 264.660156 157.324219 268.601562 150.625 271.753906 C 148.113281 264.765625 146.394531 257.480469 145.503906 250.039062 C 150.703125 249.476562 155.796875 248.601562 160.699219 247.433594 Z M 160.699219 247.433594 " fill-opacity="1" fill-rule="nonzero"/><path fill="#02afaf" d="M 84.773438 285.4375 L 87.054688 285.910156 C 94.042969 287.386719 101.296875 288.140625 108.628906 288.140625 C 116.496094 288.140625 124.355469 287.273438 132.003906 285.570312 L 136.066406 284.664062 L 134.554688 280.789062 C 130.289062 269.84375 127.691406 258.371094 126.839844 246.679688 L 126.617188 243.605469 L 123.535156 243.375 C 111.828125 242.523438 100.34375 239.929688 89.410156 235.675781 L 85.539062 234.167969 L 84.632812 238.214844 C 82.914062 245.816406 82.046875 253.609375 82.046875 261.378906 C 82.046875 268.710938 82.804688 276.039062 84.300781 283.144531 Z M 90.78125 243.792969 C 100.21875 247.105469 110.023438 249.269531 119.980469 250.242188 C 120.941406 260.183594 123.113281 269.976562 126.421875 279.410156 C 114.628906 281.539062 102.410156 281.53125 90.832031 279.382812 C 89.734375 273.472656 89.183594 267.425781 89.183594 261.382812 C 89.183594 255.511719 89.722656 249.609375 90.78125 243.792969 Z M 90.78125 243.792969 " fill-opacity="1" fill-rule="nonzero"/><path fill="#02afaf" d="M 88.980469 223.558594 L 92.355469 224.917969 C 102.117188 228.851562 112.46875 231.300781 123.101562 232.199219 L 126.675781 232.496094 L 126.960938 228.925781 C 127.527344 221.964844 128.660156 215.171875 130.347656 208.742188 L 131.039062 206.121094 L 128.699219 204.753906 C 122.976562 201.417969 117.371094 197.421875 111.933594 192.800781 L 109.1875 190.75 L 106.316406 194.101562 C 105.824219 194.6875 105.398438 195.210938 104.875 195.878906 C 104.578125 196.246094 104.273438 196.628906 104.003906 197.007812 L 103.058594 198.21875 C 102.558594 198.890625 102.078125 199.539062 101.371094 200.542969 L 99.351562 203.433594 L 99.367188 203.445312 C 95.898438 208.683594 92.886719 214.328125 90.402344 220.210938 Z M 105.335938 207.347656 L 109.167969 201.980469 C 109.382812 201.722656 109.59375 201.460938 109.800781 201.167969 C 109.933594 200.984375 110.070312 200.804688 110.207031 200.636719 C 114.28125 203.917969 118.5 206.898438 122.789062 209.535156 C 121.625 214.433594 120.75 219.527344 120.183594 224.722656 C 112.734375 223.828125 105.453125 222.113281 98.472656 219.609375 C 100.484375 215.320312 102.789062 211.195312 105.335938 207.347656 Z M 105.335938 207.347656 " fill-opacity="1" fill-rule="nonzero"/><path fill="#02afaf" d="M 131.039062 159.355469 L 130.347656 156.734375 C 128.660156 150.316406 127.527344 143.535156 126.960938 136.570312 L 126.675781 132.996094 L 123.101562 133.296875 C 112.433594 134.195312 102.085938 136.652344 92.347656 140.585938 L 88.992188 141.949219 L 90.398438 145.289062 C 92.898438 151.191406 95.960938 156.898438 99.570312 162.351562 C 100.648438 163.960938 101.8125 165.613281 103.050781 167.269531 C 103.238281 167.519531 103.433594 167.757812 103.675781 168.050781 L 103.949219 168.386719 C 104.917969 169.644531 105.953125 170.921875 107.019531 172.179688 L 109.332031 174.917969 L 112.058594 172.589844 C 117.375 168.070312 122.96875 164.070312 128.703125 160.714844 Z M 110.234375 164.84375 C 110.015625 164.574219 109.808594 164.300781 109.601562 164.03125 L 108.761719 162.992188 C 107.609375 161.445312 106.511719 159.898438 105.464844 158.324219 C 102.851562 154.378906 100.503906 150.207031 98.484375 145.894531 C 105.441406 143.390625 112.726562 141.671875 120.1875 140.777344 C 120.753906 145.972656 121.628906 151.058594 122.792969 155.945312 C 118.496094 158.59375 114.285156 161.582031 110.234375 164.84375 Z M 110.234375 164.84375 " fill-opacity="1" fill-rule="nonzero"/><path fill="#02afaf" d="M 82.046875 104.132812 C 82.046875 111.902344 82.914062 119.695312 84.628906 127.289062 L 85.546875 131.34375 L 89.410156 129.832031 C 100.363281 125.550781 111.84375 122.949219 123.535156 122.097656 L 126.617188 121.875 L 126.839844 118.792969 C 127.6875 107.125 130.285156 95.652344 134.554688 84.703125 L 136.0625 80.835938 L 132.011719 79.921875 C 117.214844 76.601562 101.671875 76.484375 87.070312 79.570312 L 84.789062 80.050781 L 84.316406 82.328125 C 82.808594 89.4375 82.046875 96.773438 82.046875 104.132812 Z M 90.847656 86.105469 C 102.433594 83.957031 114.660156 83.957031 126.429688 86.085938 C 123.109375 95.523438 120.941406 105.3125 119.976562 115.238281 C 110.027344 116.207031 100.226562 118.378906 90.78125 121.707031 C 89.722656 115.894531 89.1875 109.992188 89.1875 104.132812 C 89.183594 98.070312 89.742188 92.015625 90.847656 86.105469 Z M 90.847656 86.105469 " fill-opacity="1" fill-rule="nonzero"/><path fill="#02afaf" d="M 231.824219 202.25 L 231.964844 201.742188 C 232.058594 201.429688 232.183594 201.136719 232.34375 200.816406 C 232.4375 200.628906 232.53125 200.441406 232.648438 200.257812 L 233.003906 199.816406 C 233.132812 199.652344 233.28125 199.496094 233.496094 199.289062 L 233.8125 199 C 233.992188 198.855469 234.210938 198.730469 234.453125 198.585938 L 234.769531 198.371094 C 241.792969 194.855469 248.441406 190.527344 254.53125 185.503906 L 257.863281 182.753906 L 254.53125 180 C 248.476562 174.992188 241.859375 170.679688 235.007812 167.253906 L 234.585938 166.996094 C 234.292969 166.832031 234.019531 166.65625 233.785156 166.464844 L 233.476562 166.183594 C 233.28125 166 233.105469 165.808594 232.941406 165.597656 C 232.878906 165.519531 232.8125 165.445312 232.746094 165.375 L 232.675781 165.277344 C 232.507812 165.023438 232.355469 164.746094 232.214844 164.4375 C 232.128906 164.265625 232.078125 164.085938 232.023438 163.929688 C 231.9375 163.667969 231.863281 163.445312 231.816406 163.210938 C 231.773438 163.03125 231.761719 162.851562 231.746094 162.664062 C 231.726562 162.488281 231.722656 162.3125 231.726562 162.019531 C 231.726562 161.859375 231.71875 161.695312 231.75 161.46875 L 231.84375 161.035156 C 231.898438 160.835938 231.929688 160.636719 231.949219 160.429688 C 232.351562 159.195312 232.726562 157.957031 233.21875 156.375 C 234.761719 150.988281 235.878906 145.425781 236.554688 139.835938 C 236.632812 139.230469 236.679688 138.648438 236.769531 137.75 L 237.210938 132.988281 L 232.910156 133.398438 C 225.066406 134.15625 217.308594 135.792969 209.851562 138.28125 C 207.25 139.144531 204.371094 137.953125 203.140625 135.503906 C 199.617188 128.480469 195.28125 121.816406 190.242188 115.710938 L 187.488281 112.367188 L 184.734375 115.707031 C 179.722656 121.78125 175.390625 128.441406 171.84375 135.503906 C 170.617188 137.957031 167.730469 139.160156 165.136719 138.28125 C 157.660156 135.796875 149.882812 134.152344 142.019531 133.398438 L 137.703125 132.984375 L 138.121094 137.292969 C 138.878906 145.152344 140.519531 152.921875 143.003906 160.375 C 143.867188 162.972656 142.675781 165.859375 140.230469 167.089844 C 133.171875 170.636719 126.519531 174.980469 120.429688 180.007812 L 117.105469 182.765625 L 120.4375 185.511719 C 126.527344 190.53125 133.179688 194.867188 140.21875 198.382812 C 142.671875 199.613281 143.867188 202.5 143.003906 205.101562 C 140.523438 212.574219 138.878906 220.347656 138.121094 228.210938 L 137.703125 232.527344 L 142.019531 232.109375 C 149.886719 231.355469 157.660156 229.710938 165.140625 227.226562 C 167.664062 226.375 170.632812 227.582031 171.84375 230.003906 C 175.386719 237.066406 179.722656 243.722656 184.734375 249.796875 L 187.484375 253.136719 L 190.242188 249.796875 C 195.28125 243.6875 199.621094 237.03125 203.140625 230 C 204.375 227.539062 207.28125 226.351562 209.875 227.238281 C 212.519531 228.128906 215.160156 228.890625 217.945312 229.574219 C 220.464844 230.199219 223.167969 230.75 226.230469 231.261719 C 228.394531 231.613281 230.644531 231.902344 232.914062 232.117188 L 237.203125 232.53125 L 236.75 227.558594 C 236.6875 226.910156 236.632812 226.265625 236.550781 225.664062 C 235.875 220.070312 234.757812 214.515625 233.109375 208.789062 C 232.730469 207.550781 232.347656 206.308594 231.949219 205.019531 L 231.851562 204.476562 L 231.746094 204.039062 C 231.722656 203.8125 231.722656 203.59375 231.722656 203.367188 C 231.722656 203.214844 231.722656 203.0625 231.742188 202.859375 C 231.761719 202.644531 231.777344 202.445312 231.824219 202.25 Z M 229.863281 204.929688 Z M 231.585938 191.976562 C 231.324219 192.109375 231.070312 192.265625 230.777344 192.46875 C 230.316406 192.742188 229.820312 193.058594 229.40625 193.390625 C 229.074219 193.644531 228.78125 193.921875 228.464844 194.234375 C 228.113281 194.566406 227.785156 194.925781 227.550781 195.210938 C 227.328125 195.429688 227.125 195.652344 226.953125 195.894531 C 226.800781 196.109375 226.671875 196.332031 226.6875 196.332031 C 226.6875 196.332031 226.691406 196.332031 226.695312 196.328125 C 226.417969 196.75 226.195312 197.175781 225.96875 197.613281 C 225.632812 198.285156 225.359375 198.960938 225.078125 199.898438 C 224.984375 200.199219 224.894531 200.5 224.832031 200.816406 C 224.726562 201.355469 224.667969 201.875 224.636719 202.25 C 224.601562 202.621094 224.585938 202.992188 224.585938 203.367188 C 224.585938 203.835938 224.597656 204.332031 224.660156 204.835938 C 224.695312 205.167969 224.765625 205.5 224.847656 205.835938 L 224.921875 206.238281 C 224.972656 206.542969 225.039062 206.902344 225.167969 207.289062 C 225.558594 208.488281 225.929688 209.683594 226.375 211.128906 C 227.617188 215.472656 228.566406 219.953125 229.207031 224.488281 C 228.597656 224.402344 227.992188 224.3125 227.40625 224.214844 C 224.546875 223.734375 222.019531 223.214844 219.667969 222.632812 C 217.085938 222.003906 214.632812 221.292969 212.179688 220.46875 C 206.21875 218.4375 199.597656 221.160156 196.769531 226.800781 C 194.148438 232.023438 191.039062 237.042969 187.5 241.75 C 183.976562 237.058594 180.871094 232.039062 178.238281 226.804688 C 176.078125 222.476562 171.730469 219.796875 166.898438 219.796875 C 165.539062 219.796875 164.191406 220.011719 162.890625 220.445312 C 157.34375 222.296875 151.59375 223.640625 145.769531 224.472656 C 146.601562 218.640625 147.953125 212.894531 149.796875 207.351562 C 151.773438 201.402344 149.035156 194.804688 143.425781 191.996094 C 138.195312 189.375 133.179688 186.277344 128.492188 182.753906 C 133.191406 179.214844 138.214844 176.097656 143.449219 173.46875 C 149.046875 170.65625 151.773438 164.054688 149.792969 158.117188 C 147.949219 152.585938 146.59375 146.851562 145.769531 141.027344 C 151.597656 141.859375 157.34375 143.207031 162.890625 145.050781 C 168.820312 147.019531 175.433594 144.300781 178.242188 138.691406 C 180.878906 133.449219 183.980469 128.429688 187.503906 123.746094 C 191.042969 128.457031 194.15625 133.476562 196.773438 138.695312 C 199.582031 144.308594 206.183594 147.035156 212.128906 145.046875 C 217.671875 143.199219 223.410156 141.847656 229.21875 141.023438 C 228.578125 145.53125 227.617188 150.042969 226.304688 154.617188 C 225.933594 155.8125 225.5625 157.011719 225.179688 158.210938 C 225.058594 158.574219 224.984375 158.945312 224.855469 159.65625 C 224.777344 160 224.710938 160.339844 224.675781 160.640625 C 224.613281 161.152344 224.601562 161.617188 224.601562 162.046875 C 224.597656 162.46875 224.613281 162.878906 224.65625 163.355469 C 224.699219 163.796875 224.75 164.234375 224.832031 164.605469 C 224.941406 165.167969 225.105469 165.699219 225.273438 166.207031 C 225.410156 166.613281 225.558594 167.019531 225.738281 167.410156 C 226.019531 168.035156 226.351562 168.632812 226.632812 169.039062 L 226.964844 169.589844 C 227.140625 169.828125 227.335938 170.046875 227.390625 170.074219 C 227.753906 170.523438 228.15625 170.960938 228.667969 171.445312 C 228.878906 171.644531 229.085938 171.832031 229.316406 172.019531 C 229.871094 172.464844 230.484375 172.875 231.007812 173.15625 L 231.585938 173.5 C 236.796875 176.105469 241.808594 179.210938 246.503906 182.746094 C 241.800781 186.273438 236.796875 189.371094 231.585938 191.976562 Z M 228.613281 197.070312 Z M 228.613281 197.070312 " fill-opacity="1" fill-rule="nonzero"/><path fill="#02afaf" d="M 228.296875 84.242188 L 224.949219 85.660156 C 215.257812 89.769531 206.207031 95.355469 198.050781 102.253906 L 195.308594 104.566406 L 197.628906 107.296875 C 202.152344 112.609375 206.148438 118.21875 209.511719 123.960938 L 210.882812 126.300781 L 213.5 125.609375 C 219.914062 123.925781 226.695312 122.789062 233.664062 122.226562 L 237.234375 121.933594 L 236.9375 118.367188 C 236.046875 107.742188 233.597656 97.394531 229.664062 87.613281 Z M 214.292969 118.050781 C 211.648438 113.761719 208.65625 109.542969 205.390625 105.472656 C 211.277344 100.835938 217.640625 96.902344 224.351562 93.746094 C 226.859375 100.734375 228.578125 108.015625 229.460938 115.445312 C 224.277344 116.011719 219.1875 116.886719 214.292969 118.050781 Z M 214.292969 118.050781 " fill-opacity="1" fill-rule="nonzero"/><g clip-path="url(#0378ae5966)"><path fill="#02afaf" d="M 187.492188 37.5 L 185.546875 38.777344 C 179.414062 42.78125 173.695312 47.4375 168.542969 52.609375 C 163.144531 58.015625 158.257812 64.136719 154.03125 70.8125 L 151.800781 74.324219 L 155.609375 75.996094 C 166.355469 80.707031 176.292969 86.984375 185.152344 94.648438 L 187.488281 96.671875 L 189.824219 94.648438 C 198.679688 86.988281 208.625 80.707031 219.386719 75.992188 L 223.1875 74.324219 L 220.972656 70.8125 C 216.730469 64.117188 211.851562 57.988281 206.460938 52.601562 C 201.296875 47.441406 195.578125 42.792969 189.445312 38.78125 Z M 212.679688 71.210938 C 203.65625 75.535156 195.199219 80.925781 187.492188 87.273438 C 179.773438 80.925781 171.328125 75.535156 162.324219 71.21875 C 165.730469 66.292969 169.515625 61.742188 173.605469 57.65625 C 177.855469 53.386719 182.527344 49.492188 187.496094 46.066406 C 192.480469 49.492188 197.152344 53.382812 201.417969 57.644531 C 205.5 61.726562 209.28125 66.28125 212.679688 71.210938 Z M 212.679688 71.210938 " fill-opacity="1" fill-rule="nonzero"/></g><path fill="#02afaf" d="M 266.351562 288.136719 C 273.65625 288.136719 280.910156 287.394531 287.917969 285.925781 L 290.210938 285.453125 L 290.683594 283.160156 C 292.164062 276.089844 292.921875 268.761719 292.921875 261.382812 C 292.921875 253.636719 292.054688 245.847656 290.347656 238.222656 L 289.433594 234.167969 L 285.566406 235.683594 C 283.40625 236.527344 281.46875 237.230469 279.65625 237.828125 L 279.007812 238.035156 C 278.238281 238.285156 277.464844 238.53125 276.714844 238.75 L 276.265625 238.882812 C 268.828125 241.09375 261.0625 242.566406 252.804688 243.289062 L 248.347656 243.59375 L 248.121094 246.695312 C 247.277344 258.378906 244.679688 269.847656 240.410156 280.789062 L 238.898438 284.664062 L 242.960938 285.570312 C 250.59375 287.273438 258.460938 288.136719 266.351562 288.136719 Z M 254.976562 250.382812 L 257.070312 250.238281 L 257.070312 250.039062 C 264.308594 249.214844 271.410156 247.773438 278.195312 245.753906 L 278.75 245.597656 C 279.558594 245.355469 280.382812 245.09375 281.191406 244.832031 L 284.210938 243.859375 C 285.253906 249.65625 285.785156 255.539062 285.785156 261.382812 C 285.785156 267.460938 285.234375 273.515625 284.15625 279.386719 C 272.546875 281.519531 260.3125 281.519531 248.546875 279.410156 C 251.84375 270.011719 254.003906 260.265625 254.976562 250.382812 Z M 254.976562 250.382812 " fill-opacity="1" fill-rule="nonzero"/><path fill="#02afaf" d="M 262.929688 192.890625 C 257.613281 197.417969 252.011719 201.410156 246.28125 204.757812 L 243.945312 206.121094 L 244.625 208.738281 C 245.9375 213.777344 246.925781 218.964844 247.582031 224.367188 C 247.757812 225.777344 247.902344 227.214844 248.011719 228.625 L 248.273438 232.464844 L 252.222656 232.195312 C 259.320312 231.574219 266.378906 230.234375 273.1875 228.210938 C 274.195312 227.917969 275.160156 227.613281 276.109375 227.300781 C 278.304688 226.582031 280.5 225.777344 282.640625 224.917969 L 286.015625 223.558594 L 284.585938 220.210938 C 280.464844 210.515625 274.878906 201.460938 267.976562 193.300781 L 265.667969 190.570312 Z M 276.5 219.625 C 275.632812 219.9375 274.761719 220.238281 273.898438 220.519531 C 273.023438 220.800781 272.125 221.085938 271.117188 221.378906 C 265.816406 222.953125 260.34375 224.082031 254.816406 224.75 C 254.769531 224.328125 254.722656 223.910156 254.671875 223.488281 L 254.652344 223.359375 C 254.089844 218.722656 253.257812 214.082031 252.183594 209.542969 C 256.472656 206.90625 260.6875 203.925781 264.753906 200.652344 C 269.394531 206.546875 273.335938 212.914062 276.5 219.625 Z M 276.5 219.625 " fill-opacity="1" fill-rule="nonzero"/><path fill="#02afaf" d="M 286.011719 141.953125 L 282.636719 140.589844 C 272.882812 136.652344 262.546875 134.195312 251.902344 133.296875 L 248.335938 133 L 248.050781 136.5625 C 247.914062 138.152344 247.757812 139.722656 247.578125 141.230469 C 246.945312 146.433594 245.957031 151.65625 244.625 156.753906 L 243.949219 159.371094 L 246.285156 160.734375 C 252.011719 164.082031 257.613281 168.078125 262.9375 172.617188 L 265.667969 174.941406 L 267.976562 172.199219 C 274.878906 164.03125 280.46875 154.980469 284.582031 145.300781 Z M 264.757812 164.847656 C 260.695312 161.578125 256.476562 158.585938 252.183594 155.945312 C 253.273438 151.355469 254.105469 146.699219 254.660156 142.074219 C 254.714844 141.644531 254.765625 141.214844 254.8125 140.773438 C 262.257812 141.664062 269.53125 143.378906 276.496094 145.886719 C 273.335938 152.585938 269.398438 158.949219 264.757812 164.847656 Z M 264.757812 164.847656 " fill-opacity="1" fill-rule="nonzero"/><path fill="#02afaf" d="M 290.351562 127.277344 C 292.054688 119.652344 292.921875 111.863281 292.921875 104.132812 C 292.921875 96.738281 292.160156 89.398438 290.664062 82.316406 L 290.175781 80.035156 L 287.902344 79.5625 C 273.285156 76.488281 257.75 76.613281 242.964844 79.929688 L 238.917969 80.84375 L 240.421875 84.714844 C 244.6875 95.660156 247.277344 107.125 248.121094 118.8125 L 248.347656 121.890625 L 251.425781 122.117188 C 263.160156 122.96875 274.648438 125.5625 285.566406 129.832031 L 289.4375 131.335938 Z M 284.195312 121.703125 C 274.769531 118.386719 264.960938 116.222656 254.988281 115.246094 C 254.023438 105.304688 251.859375 95.515625 248.546875 86.085938 C 260.316406 83.957031 272.542969 83.960938 284.136719 86.09375 C 285.230469 91.964844 285.78125 98.027344 285.78125 104.132812 C 285.78125 109.984375 285.246094 115.886719 284.195312 121.703125 Z M 284.195312 121.703125 " fill-opacity="1" fill-rule="nonzero"/><g clip-path="url(#d68d30657c)"><path fill="#02afaf" d="M 295.921875 218.457031 L 299.441406 216.226562 C 306.101562 211.996094 312.222656 207.113281 317.632812 201.722656 C 322.773438 196.605469 327.421875 190.878906 331.460938 184.699219 L 332.738281 182.746094 L 331.460938 180.792969 C 327.445312 174.648438 322.792969 168.933594 317.644531 163.800781 C 312.253906 158.40625 306.125 153.523438 299.433594 149.285156 L 295.921875 147.058594 L 294.257812 150.863281 C 289.535156 161.609375 283.25 171.550781 275.589844 180.414062 L 273.566406 182.746094 L 275.589844 185.085938 C 283.253906 193.941406 289.535156 203.886719 294.261719 214.640625 Z M 299.023438 157.578125 C 303.945312 160.976562 308.5 164.761719 312.597656 168.863281 C 316.851562 173.097656 320.738281 177.765625 324.171875 182.75 C 320.726562 187.761719 316.839844 192.4375 312.589844 196.664062 C 308.496094 200.75 303.941406 204.535156 299.03125 207.933594 C 294.699219 198.914062 289.304688 190.460938 282.953125 182.75 C 289.296875 175.039062 294.695312 166.582031 299.023438 157.578125 Z M 299.023438 157.578125 " fill-opacity="1" fill-rule="nonzero"/></g></svg>